<svg xmlns="http://www.w3.org/2000/svg" xmlns:xlink="http://www.w3.org/1999/xlink" id="Layer_1" x="0px" y="0px" viewBox="0 0 155 36" style="enable-background:new 0 0 155 36;" xml:space="preserve"><style type="text/css">	.st0{fill:#006980;}	.st1{fill:#FFB61C;}</style><g>	<path class="st0" d="M8.5,29v5.6H0.1C2.7,33,5.5,31.2,8.5,29z"></path>	<path class="st1" d="M8.5,26.8L8.5,26.8c-3,2.4-5.9,4.5-8.5,6.2v-5.1c0-0.6,0.5-1.1,1.1-1.1H8.5z"></path>	<g>		<path class="st1" d="M28.7,5c-2,3-4.5,6.3-7.6,9.7V6.1c0-0.6,0.5-1.1,1.1-1.1H28.7z"></path>		<path class="st0" d="M29.6,8.3v25.1c0,0.7-0.6,1.3-1.3,1.3h-7.2V18c2.4-2.4,4.5-4.8,6.4-7.1c0.2-0.2,0.3-0.4,0.5-0.6   C28.6,9.6,29.1,8.9,29.6,8.3z"></path>	</g>	<path class="st1" d="M18.8,17.2c-1,1.1-2,2.1-3.1,3.2c-1.7,1.6-3.3,3.1-5,4.5v-6.6c0-0.6,0.5-1.1,1.1-1.1H18.8z"></path>	<path class="st0" d="M18.9,20.2v14.4h-8.2v-7.3c2.5-2,5-4.1,7.6-6.5C18.5,20.6,18.7,20.4,18.9,20.2z"></path>	<path class="st1" d="M27.8,3.5l3.6,0c0,1.3,0,2.7,0,4C32.3,5,33.1,2.5,34,0C32,1.1,29.9,2.3,27.8,3.5z"></path>	<path class="st0" d="M37.5,30.1V10.8h12.9v3.1h-9.1v5.3h7.3v3h-7.3v7.9H37.5z"></path>	<rect x="53.3" y="17.8" class="st0" width="3.8" height="12.4"></rect>	<path class="st0" d="M61,30.1V15.8h3.4l0.3,2.3c0.4-0.8,1.1-1.4,1.9-1.9c0.8-0.5,1.8-0.7,2.9-0.7c1.2,0,2.2,0.2,3,0.7  c0.8,0.5,1.4,1.2,1.9,2.2c0.4,0.9,0.6,2.1,0.6,3.5v8.3h-3.8v-7.9c0-1.1-0.2-2-0.7-2.6c-0.5-0.6-1.2-0.9-2.2-0.9  c-0.6,0-1.2,0.2-1.7,0.5c-0.5,0.3-0.9,0.7-1.2,1.3c-0.3,0.6-0.4,1.2-0.4,2v7.6H61z"></path>	<path class="st0" d="M83.3,30.1c-1.2,0-2.2-0.2-2.9-0.6c-0.8-0.4-1.3-0.9-1.7-1.6c-0.4-0.7-0.6-1.4-0.6-2.2c0-0.9,0.2-1.6,0.7-2.3  c0.4-0.7,1.1-1.2,2-1.6c0.9-0.4,2-0.6,3.4-0.6h3.5c0-0.7-0.1-1.3-0.3-1.7c-0.2-0.5-0.5-0.8-0.9-1c-0.4-0.2-0.9-0.3-1.6-0.3  c-0.7,0-1.3,0.2-1.8,0.5s-0.8,0.8-0.9,1.4h-3.7c0.1-1,0.4-1.9,1-2.7c0.6-0.7,1.3-1.3,2.3-1.7s2-0.6,3.2-0.6c1.3,0,2.5,0.2,3.5,0.7  c1,0.5,1.7,1.1,2.3,2c0.5,0.9,0.8,1.9,0.8,3.1v8.8h-3.2l-0.4-2.2c-0.2,0.4-0.5,0.7-0.7,1c-0.3,0.3-0.6,0.6-1,0.8  c-0.4,0.2-0.8,0.4-1.3,0.5C84.4,30.1,83.9,30.1,83.3,30.1z M84.2,27.2c0.5,0,0.9-0.1,1.3-0.3c0.4-0.2,0.7-0.4,1-0.7  c0.3-0.3,0.5-0.7,0.7-1.1c0.2-0.4,0.3-0.8,0.3-1.3v0h-2.9c-0.6,0-1.1,0.1-1.4,0.2c-0.4,0.1-0.6,0.3-0.8,0.6  c-0.2,0.3-0.3,0.6-0.3,0.9c0,0.4,0.1,0.7,0.3,0.9c0.2,0.2,0.4,0.4,0.7,0.6C83.4,27.1,83.8,27.2,84.2,27.2z"></path>	<path class="st0" d="M95.1,30.1V15.8h3.4l0.3,2.3c0.4-0.8,1.1-1.4,1.9-1.9c0.8-0.5,1.8-0.7,2.9-0.7c1.2,0,2.2,0.2,3,0.7  c0.8,0.5,1.4,1.2,1.9,2.2c0.4,0.9,0.6,2.1,0.6,3.5v8.3h-3.8v-7.9c0-1.1-0.2-2-0.7-2.6c-0.5-0.6-1.2-0.9-2.2-0.9  c-0.6,0-1.2,0.2-1.7,0.5c-0.5,0.3-0.9,0.7-1.2,1.3c-0.3,0.6-0.4,1.2-0.4,2v7.6H95.1z"></path>	<path class="st0" d="M119.5,30.1c-1.4,0-2.7-0.3-3.8-1c-1.1-0.6-2-1.5-2.6-2.6c-0.6-1.1-0.9-2.4-0.9-3.8c0-1.5,0.3-2.8,0.9-3.9  c0.6-1.1,1.5-2,2.6-2.7c1.1-0.7,2.4-1,3.8-1c1.8,0,3.4,0.5,4.6,1.4c1.2,1,2,2.3,2.4,4h-4.1c-0.2-0.7-0.5-1.2-1.1-1.6  c-0.5-0.4-1.2-0.6-1.9-0.6c-0.7,0-1.3,0.2-1.8,0.5c-0.5,0.3-0.9,0.8-1.2,1.4c-0.3,0.6-0.4,1.4-0.4,2.3c0,0.7,0.1,1.3,0.3,1.8  c0.2,0.5,0.4,1,0.7,1.3c0.3,0.4,0.7,0.6,1.1,0.8c0.4,0.2,0.9,0.3,1.4,0.3c0.5,0,0.9-0.1,1.3-0.3c0.4-0.2,0.8-0.4,1-0.7  c0.3-0.3,0.5-0.7,0.6-1.1h4.1c-0.3,1.6-1.1,3-2.4,3.9C122.8,29.6,121.3,30.1,119.5,30.1z"></path>	<path class="st0" d="M128.5,20.1v-3.2h8.9v3.2H128.5z M130.4,30.1V15.7c0-1.2,0.2-2.1,0.6-2.8c0.4-0.7,1-1.2,1.7-1.5  c0.7-0.3,1.6-0.5,2.6-0.5h1.8v3.3h-1.2c-0.6,0-1,0.1-1.3,0.4c-0.3,0.2-0.4,0.6-0.4,1.2v14.5H130.4z"></path>	<path class="st0" d="M142.1,36l3.5-7.8h-0.9L139,15.5h4.2l4.1,9.2l3.7-9.2h4.1L146.2,36H142.1z"></path>	<rect x="53.3" y="12.6" class="st1" width="3.8" height="3.8"></rect></g></svg>